<svg width="37" height="29" viewBox="0 0 37 29" fill="none" xmlns="http://www.w3.org/2000/svg">
<path d="M18.1228 23.042H13.0603C12.2836 23.042 11.6541 22.4124 11.6541 21.6357C11.6541 20.8591 12.2836 20.2295 13.0603 20.2295H18.1228C18.8995 20.2295 19.5291 20.8591 19.5291 21.6357C19.5291 22.4124 18.8995 23.042 18.1228 23.042ZM1.8103 0.541992H29.3728C30.1495 0.541992 30.7791 1.17157 30.7791 1.94824C30.7791 2.72491 30.1495 3.35449 29.3728 3.35449H3.21655V21.6357C3.21655 22.4124 2.58697 23.042 1.8103 23.042C1.03363 23.042 0.404053 22.4124 0.404053 21.6357V1.94824C0.404053 1.17157 1.03363 0.541992 1.8103 0.541992ZM29.3728 23.042H23.7478C22.9711 23.042 22.3416 22.4124 22.3416 21.6357V16.0107C22.3416 15.2341 22.9711 14.6045 23.7478 14.6045H29.3728C30.1495 14.6045 30.7791 15.2341 30.7791 16.0107V21.6357C30.7791 22.4124 30.1495 23.042 29.3728 23.042ZM27.9666 17.417H25.1541V20.2295H27.9666V17.417ZM7.4353 6.16699H34.9978C35.7745 6.16699 36.4041 6.79657 36.4041 7.57324V27.2607C36.4041 28.0374 35.7745 28.667 34.9978 28.667H7.4353C6.65863 28.667 6.02905 28.0374 6.02905 27.2607V7.57324C6.02905 6.79657 6.65863 6.16699 7.4353 6.16699ZM8.84155 25.8545H33.5916V8.97949H8.84155V25.8545Z" fill="white"/>
</svg>
