<svg width="28" height="28" viewBox="0 0 28 28" fill="none" xmlns="http://www.w3.org/2000/svg">
<path fill-rule="evenodd" clip-rule="evenodd" d="M0.18335 8.39977C0.18335 3.86183 3.86208 0.183105 8.40002 0.183105H19.6C24.138 0.183105 27.8167 3.86183 27.8167 8.39977V19.5998C27.8167 24.1377 24.138 27.8164 19.6 27.8164H8.40001C3.86208 27.8164 0.18335 24.1377 0.18335 19.5998V8.39977ZM8.40002 1.68311C4.6905 1.68311 1.68335 4.69026 1.68335 8.39977V19.5998C1.68335 23.3093 4.6905 26.3164 8.40001 26.3164H19.6C23.3095 26.3164 26.3167 23.3093 26.3167 19.5998V8.39977C26.3167 4.69026 23.3095 1.68311 19.6 1.68311H8.40002ZM22.4 7.2831H20.5333V5.7831H22.4V7.2831ZM7.65002 13.9998C7.65002 10.4928 10.493 7.64977 14 7.64977C17.507 7.64977 20.35 10.4928 20.35 13.9998C20.35 17.5068 17.507 20.3498 14 20.3498C10.493 20.3498 7.65002 17.5068 7.65002 13.9998ZM14 9.14977C11.3214 9.14977 9.15002 11.3212 9.15002 13.9998C9.15002 16.6784 11.3214 18.8498 14 18.8498C16.6786 18.8498 18.85 16.6784 18.85 13.9998C18.85 11.3212 16.6786 9.14977 14 9.14977Z" fill="white"/>
</svg>
