<svg width="37" height="37" viewBox="0 0 37 37" fill="none" xmlns="http://www.w3.org/2000/svg">
<g clip-path="url(#clip0_9_7957)">
<path d="M24.4815 15.3169C24.4478 15.3169 24.5153 15.3194 24.4815 15.3169V15.3169ZM20.7616 9.46134C21.3548 8.96022 22.2421 9.03489 22.7433 9.62819L24.6685 11.9073L25.6581 11.0302C26.2394 10.515 27.1282 10.5686 27.6432 11.1498C28.1584 11.731 28.1049 12.6197 27.5237 13.1349L25.4563 14.9673C25.1983 15.196 24.8241 15.3169 24.4816 15.3169C24.0597 15.3169 23.6937 15.1117 23.4493 14.8224L20.5948 11.4431C20.0936 10.8498 20.1683 9.96253 20.7616 9.46134V9.46134ZM20.7616 17.3363C21.3548 16.8352 22.2421 16.9099 22.7433 17.5032L24.6685 19.7823L25.6581 18.9052C26.2394 18.39 27.1282 18.4436 27.6432 19.0248C28.1584 19.606 28.1049 20.4947 27.5237 21.0099L25.4563 22.8423C25.1983 23.071 24.8241 23.1919 24.4816 23.1919C24.0597 23.1919 23.6937 22.9867 23.4493 22.6974L20.5948 19.3181C20.0936 18.7248 20.1683 17.8375 20.7616 17.3363V17.3363ZM9.99713 10.9618H17.3096C18.0863 10.9618 18.7159 11.5914 18.7159 12.3681C18.7159 13.1447 18.0863 13.7743 17.3096 13.7743H9.99713C9.22046 13.7743 8.59088 13.1447 8.59088 12.3681C8.59088 11.5914 9.22046 10.9618 9.99713 10.9618ZM0.153381 26.7075C0.153381 30.5846 3.30753 33.7388 7.18463 33.7388H29.1221C32.9992 33.7388 36.1534 30.5846 36.1534 26.7075C36.1534 25.9308 35.5238 25.3013 34.7471 25.3013H33.3409V5.12158C33.3409 4.34491 32.7113 3.71533 31.9346 3.71533H4.37213C3.59546 3.71533 2.96588 4.34491 2.96588 5.12158V25.3013H1.55963C0.78296 25.3013 0.153381 25.9308 0.153381 26.7075ZM30.5284 25.3013H5.77838V6.52783H30.5284V25.3013ZM3.20684 28.1138H33.0999C32.5195 29.7507 30.9555 30.9263 29.1221 30.9263H7.18463C5.35123 30.9263 3.78727 29.7507 3.20684 28.1138ZM9.99713 18.7665H17.3096C18.0863 18.7665 18.7159 19.3961 18.7159 20.1727C18.7159 20.9494 18.0863 21.579 17.3096 21.579H9.99713C9.22046 21.579 8.59088 20.9494 8.59088 20.1727C8.59088 19.3961 9.22046 18.7665 9.99713 18.7665Z" fill="white"/>
</g>
<defs>
<clipPath id="clip0_9_7957">
<rect width="36" height="36" fill="white" transform="matrix(-1 0 0 1 36.1534 0.727051)"/>
</clipPath>
</defs>
</svg>
