<svg width="28" height="22" viewBox="0 0 28 22" fill="none" xmlns="http://www.w3.org/2000/svg">
<path fill-rule="evenodd" clip-rule="evenodd" d="M12.9129 5.95462C12.9129 2.66392 15.6911 0.0498047 19.0481 0.0498047C20.6841 0.0498047 22.1774 0.665717 23.2813 1.67842C24.4298 1.67695 25.37 1.65984 26.4652 1.46213C27.1275 1.34256 27.5956 2.08362 27.2149 2.63032C27.0769 2.82856 26.9435 3.02882 26.8097 3.22977C26.3273 3.95407 25.8389 4.68736 25.1051 5.36771C25.1074 5.38264 25.1096 5.3982 25.1119 5.41445C25.1397 5.61621 25.1649 5.91102 25.1985 6.50436C25.6078 13.731 19.4719 21.9665 9.12915 21.9665C6.13318 21.9665 2.81124 21.0254 0.791078 19.7432C0.400281 19.4951 0.340024 19.0533 0.445017 18.7485C0.547437 18.4512 0.844696 18.1594 1.27437 18.169C1.31838 18.17 1.36603 18.1705 1.41681 18.1711C1.63468 18.1738 1.91001 18.1771 2.20091 18.2157C3.7742 18.1641 5.2537 17.832 6.56523 17.2412C5.98694 17.1199 5.40697 16.9616 4.85113 16.7732C3.56997 16.339 2.32808 15.7148 1.52911 14.9353C1.02656 14.4451 1.31002 13.6512 1.9279 13.5052C2.52115 13.3651 3.25175 13.1603 3.9813 12.9523C2.41711 12.072 1.11216 10.77 0.149907 9.1585C-0.192369 8.58529 0.22817 7.87651 0.876677 7.87435C1.09341 7.87362 1.36272 7.8717 1.65837 7.86959C1.90585 7.86782 2.17177 7.86591 2.44074 7.86448C1.6799 6.88231 1.22567 5.66094 1.22567 4.33371C1.22567 3.30259 1.49921 2.3314 1.98305 1.48783C2.28407 0.963008 2.99129 0.92978 3.36051 1.35541C5.69868 4.05078 9.08193 5.89297 12.9236 6.30893C12.9165 6.1915 12.9129 6.07335 12.9129 5.95462ZM3.92464 19.5606C5.50361 20.1084 7.37459 20.4665 9.12915 20.4665C18.5981 20.4665 24.0621 12.9675 23.7009 6.58917C23.6674 5.99698 23.6447 5.75555 23.6259 5.61938C23.6173 5.55645 23.6091 5.51344 23.5975 5.45473L23.595 5.442C23.583 5.38143 23.568 5.30517 23.5512 5.19881L23.4842 4.77405L23.8169 4.50165C24.34 4.07342 24.7006 3.63813 25.0564 3.13679C24.3761 3.17857 23.7117 3.17856 23.0035 3.17856H22.6629L22.4423 2.95323C21.5992 2.092 20.3941 1.5498 19.0481 1.5498C16.4572 1.5498 14.4129 3.55335 14.4129 5.95462C14.4129 6.29933 14.4535 6.63391 14.531 6.95188L14.7686 7.92681L13.7663 7.8786C9.502 7.67352 5.67122 5.87351 2.91476 3.08092C2.79156 3.47741 2.72567 3.89779 2.72567 4.33371C2.72567 5.83679 3.51845 7.17729 4.74843 7.97593C5.05123 8.17255 5.1446 8.52255 5.06987 8.80701C4.992 9.10344 4.71151 9.38497 4.31291 9.37325C3.78708 9.35778 2.90837 9.36125 2.10307 9.36658C3.22834 10.8203 4.70916 11.8599 6.42808 12.3684C6.7789 12.4721 6.96676 12.7869 6.97268 13.0823C6.97879 13.3877 6.78755 13.7333 6.40394 13.8328C5.99232 13.9396 5.42829 14.1001 4.82575 14.2717C4.43132 14.384 4.0204 14.501 3.62492 14.6106C4.11521 14.8841 4.69678 15.1371 5.3326 15.3526C6.50797 15.751 7.7814 15.9915 8.83373 16.0133C9.60541 16.0293 9.81296 16.979 9.27204 17.3824C7.73688 18.5273 5.90379 19.2568 3.92464 19.5606Z" fill="white"/>
</svg>
