<svg width="28" height="28" viewBox="0 0 28 28" fill="none" xmlns="http://www.w3.org/2000/svg">
<path d="M21.808 19.409L21.8062 19.4141C21.5667 20.0778 20.9442 20.6063 20.4196 20.9455C19.8858 21.2907 19.2308 21.5819 18.7233 21.6296C18.6717 21.6345 18.6186 21.6409 18.5522 21.649C18.2127 21.6902 17.785 21.7403 17.0676 21.6195C16.378 21.5034 15.4373 21.233 14.0305 20.6771C10.4033 19.2451 8.0467 15.7476 7.57659 15.0498L7.56811 15.0372L8.11416 14.6692L7.5681 15.0372L7.52511 14.9736L7.51366 14.957L21.808 19.409ZM21.808 19.409C21.9789 18.9244 22.067 18.4693 22.0984 18.1009M21.808 19.409L22.0984 18.1009M7.28908 7.29738L7.28908 7.29737C7.31355 7.27141 7.33285 7.25092 7.34971 7.23267C7.84851 6.69271 8.45129 6.53995 8.86731 6.53995H8.87524C9.11206 6.53995 9.36463 6.53994 9.58513 6.54719L7.28908 7.29738ZM7.28908 7.29738C6.87292 7.73893 5.88477 8.79323 5.88477 10.7647C5.88477 11.8099 6.25744 12.7962 6.62424 13.524C6.99607 14.2616 7.39498 14.7975 7.50673 14.9476L7.50681 14.9477L7.50686 14.9478L7.51251 14.9554M7.28908 7.29738L7.51251 14.9554M22.0984 18.1009C22.114 17.9175 22.1166 17.7443 22.1047 17.592M22.0984 18.1009L22.1047 17.592M22.1047 17.592C22.0958 17.4796 22.0724 17.253 21.9551 17.0545L22.1047 17.592ZM7.51417 14.9576C7.51186 14.9545 7.51108 14.9534 7.51251 14.9554M7.51417 14.9576L7.51251 14.9554M7.51417 14.9576L7.51451 14.9581L8.11616 14.5103L7.51417 14.9576ZM7.66078 25.6237C7.49308 25.5325 7.29691 25.5087 7.11226 25.5571L0.949075 27.1732L2.59409 21.1786C2.64712 20.9854 2.62061 20.7789 2.52047 20.6054C1.35974 18.5934 0.749171 16.3117 0.750001 13.9894V13.9892C0.750001 6.69028 6.70061 0.75 13.9999 0.75C17.5494 0.75 20.871 2.13016 23.3734 4.63059C25.875 7.13034 27.25 10.4558 27.25 13.9961C27.25 21.2948 21.2994 27.2351 14 27.2351H13.9931C11.7751 27.2351 9.59612 26.6761 7.66078 25.6237ZM11.0612 7.61632L11.0608 7.61532L12.1986 11.5649C12.4598 11.0277 12.3109 10.557 12.167 10.2694C12.1673 10.2699 12.1673 10.27 12.1671 10.2696C12.1661 10.2672 12.1567 10.2467 12.1352 10.1965C12.1135 10.1456 12.0852 10.0782 12.0514 9.99648C11.9837 9.83323 11.8969 9.62103 11.8006 9.38557L11.7956 9.37332C11.5519 8.7776 11.2461 8.02985 11.0612 7.61632ZM12.1604 11.6442L12.1985 11.5651L21.9549 17.0543C21.8265 16.8371 21.6431 16.7079 21.521 16.633C21.4044 16.5615 21.2682 16.496 21.1572 16.4426L21.1395 16.4341C21.0771 16.404 21.015 16.3741 20.9492 16.3412L20.9491 16.3412C20.7649 16.2492 20.2264 15.9836 19.6919 15.7253C19.1789 15.4774 18.6092 15.2064 18.4012 15.1284L18.4011 15.1284L18.3931 15.1254C18.2399 15.068 17.9378 14.9547 17.6066 14.9939C17.1909 15.0431 16.8984 15.2949 16.7002 15.5955C16.5094 15.8774 15.9728 16.5132 15.6982 16.8349C15.6261 16.8001 15.5417 16.7636 15.4643 16.7301L15.4511 16.7243L15.4493 16.7236C14.9656 16.514 14.0452 16.1154 12.9767 15.1603L12.9754 15.1592C12.0909 14.3723 11.4514 13.4036 11.1871 12.9669C11.3043 12.8449 11.4269 12.6961 11.5261 12.5758L11.5392 12.5598C11.6086 12.4757 11.6707 12.4004 11.7289 12.3334L11.729 12.3332C11.9547 12.073 12.0584 11.8568 12.1547 11.656L12.1604 11.6442L12.1604 11.6442Z" stroke="white" stroke-width="1.5" stroke-linejoin="round"/>
</svg>
