<svg width="35" height="40" viewBox="0 0 35 40" fill="none" xmlns="http://www.w3.org/2000/svg">
<path d="M19.5201 15.4577L15.9375 19.0403L15.4798 18.5827C14.8696 17.9724 13.8803 17.9724 13.2702 18.5827C12.66 19.1929 12.6599 20.1822 13.2702 20.7923L14.8327 22.3548C15.1377 22.6599 15.5376 22.8125 15.9375 22.8125C16.3374 22.8125 16.7373 22.6599 17.0423 22.3548L21.7298 17.6673C22.3401 17.0571 22.3401 16.0678 21.7298 15.4577C21.1196 14.8475 20.1303 14.8474 19.5201 15.4577ZM33.125 3.125H30C29.1384 3.125 28.4375 2.4243 28.4375 1.5625C28.4375 0.699531 27.738 0 26.875 0H8.125C7.26203 0 6.5625 0.699531 6.5625 1.5625C6.5625 1.97984 6.39992 2.37227 6.10484 2.66734C5.80969 2.96242 5.41734 3.125 5 3.125H1.875C1.01203 3.125 0.3125 3.82453 0.3125 4.6875V19.378C0.3125 25.0677 2.37211 30.1279 6.26867 34.0113C9.23445 36.9672 13.3186 39.1947 17.1936 39.9697C17.2947 39.9899 17.3973 40 17.5 40C17.6027 40 17.7053 39.9899 17.8064 39.9697C22.5537 39.0202 26.8585 36.4355 29.9278 32.6915C32.9971 28.9475 34.6875 24.2194 34.6875 19.378V4.6875C34.6875 3.82453 33.988 3.125 33.125 3.125V3.125ZM31.5625 19.378C31.5625 27.7637 25.6682 35.0573 17.5019 36.8409C11.7336 35.5524 3.4375 29.9414 3.4375 19.378V6.25H5C6.25203 6.25 7.42922 5.76242 8.31453 4.87703C8.81758 4.37398 9.19227 3.77672 9.42203 3.125H25.5802C26.2249 4.94391 27.9627 6.25 30 6.25H31.5625V19.378ZM27.3978 8.92953C26.1684 8.49289 25.056 7.74609 24.1812 6.76984C23.8849 6.43898 23.4617 6.25 23.0176 6.25H11.9824C11.5383 6.25 11.1152 6.43898 10.8187 6.76977C9.94391 7.74602 8.83164 8.49289 7.60211 8.92945C6.97891 9.15078 6.5625 9.74055 6.5625 10.402V19.3778C6.5625 25.9747 10.9025 31.6376 17.0475 33.497C17.1951 33.5416 17.3475 33.5639 17.5 33.5639C17.6523 33.5639 17.8048 33.5416 17.9523 33.497C24.145 31.6245 28.4375 25.8856 28.4375 19.3777V10.402C28.4375 9.74055 28.0211 9.15078 27.3978 8.92953ZM25.3125 19.3777C25.3125 24.2996 22.1228 28.748 17.4994 30.3588C12.8072 28.7332 9.6875 24.3786 9.6875 19.3777V11.4431C10.7785 10.923 11.782 10.2226 12.6485 9.375H22.3514C23.218 10.2227 24.2215 10.923 25.3124 11.4431V19.3777H25.3125Z" fill="white"/>
</svg>
