<svg width="37" height="37" viewBox="0 0 37 37" fill="none" xmlns="http://www.w3.org/2000/svg">
<path d="M1.8103 0.604492H13.0603C15.2328 0.604492 17.1686 1.63638 18.4041 3.23572C19.6395 1.63638 21.5753 0.604492 23.7478 0.604492C24.8481 0.604492 33.8997 0.604492 34.9978 0.604492C35.7745 0.604492 36.4041 1.23401 36.4041 2.01074V35.1982C36.4041 35.975 35.7745 36.6045 34.9978 36.6045H1.8103C1.03357 36.6045 0.404053 35.975 0.404053 35.1982C0.404053 33.5654 0.404053 3.46835 0.404053 2.01074C0.404053 1.23401 1.03357 0.604492 1.8103 0.604492ZM28.2478 3.41699H25.1541V7.48138L25.8835 6.96036C26.128 6.78568 26.4145 6.69833 26.7009 6.69833C26.9874 6.69833 27.2739 6.78568 27.5183 6.96036L28.2478 7.48138V3.41699ZM33.5916 33.792V31.2607H23.7478C22.0721 31.2607 20.6384 32.3135 20.071 33.792H33.5916ZM19.8103 29.7185C20.9194 28.9196 22.2795 28.4482 23.7478 28.4482H33.5916V3.41699H31.0603V10.214C31.0603 11.3552 29.7664 12.0226 28.8367 11.3582L26.7009 9.83273L24.5652 11.3582C23.6421 12.0176 22.3416 11.3634 22.3416 10.214V3.67764C20.8631 4.24509 19.8103 5.67853 19.8103 7.35449V29.7185ZM3.21655 33.792H16.7372C16.1697 32.3135 14.736 31.2607 13.0603 31.2607H3.21655V33.792ZM3.21655 28.4482H13.0603C14.5286 28.4482 15.8887 28.9196 16.9978 29.7185V7.35449C16.9978 5.18332 15.2315 3.41699 13.0603 3.41699H3.21655V28.4482ZM22.3416 15.9326C22.3416 16.7094 22.9711 17.3389 23.7478 17.3389H29.6541C30.4308 17.3389 31.0603 16.7094 31.0603 15.9326C31.0603 15.1559 30.4308 14.5264 29.6541 14.5264H23.7478C22.9711 14.5264 22.3416 15.1559 22.3416 15.9326ZM22.3416 21.6513C22.3416 22.428 22.9711 23.0575 23.7478 23.0575H29.6541C30.4308 23.0575 31.0603 22.428 31.0603 21.6513C31.0603 20.8745 30.4308 20.245 29.6541 20.245H23.7478C22.9711 20.245 22.3416 20.8745 22.3416 21.6513ZM5.7478 15.9326C5.7478 16.7094 6.37732 17.3389 7.15405 17.3389H13.0603C13.837 17.3389 14.4666 16.7094 14.4666 15.9326C14.4666 15.1559 13.837 14.5264 13.0603 14.5264H7.15405C6.37732 14.5264 5.7478 15.1559 5.7478 15.9326ZM13.0603 8.80771H7.15405C6.37732 8.80771 5.7478 9.43723 5.7478 10.214C5.7478 10.9907 6.37732 11.6202 7.15405 11.6202H13.0603C13.837 11.6202 14.4666 10.9907 14.4666 10.214C14.4666 9.43723 13.837 8.80771 13.0603 8.80771ZM5.7478 21.6513C5.7478 22.428 6.37732 23.0575 7.15405 23.0575H13.0603C13.837 23.0575 14.4666 22.428 14.4666 21.6513C14.4666 20.8745 13.837 20.245 13.0603 20.245H7.15405C6.37732 20.245 5.7478 20.8745 5.7478 21.6513Z" fill="white"/>
</svg>
