<svg width="36" height="26" viewBox="0 0 36 26" fill="none" xmlns="http://www.w3.org/2000/svg">
<path d="M1.40625 5.96875H17.7297C17.9261 5.42245 18.1464 4.90308 18.3897 4.41611C19.7029 1.7901 21.562 0.34375 23.625 0.34375H28.9688C31.0317 0.34375 32.8909 1.7901 34.204 4.41611C35.3622 6.73257 36 9.78101 36 13C36 16.219 35.3622 19.2674 34.204 21.5839C32.8909 24.2099 31.0317 25.6562 28.9688 25.6562H23.625C22.0487 25.6562 20.5919 24.8111 19.4062 23.2412V24.25C19.4062 25.0267 18.7767 25.6562 18 25.6562H1.40625C0.629517 25.6562 0 25.0267 0 24.25C0 23.7856 0 8.11081 0 7.375C0 6.59827 0.629517 5.96875 1.40625 5.96875ZM16.5938 14.4062H2.8125V17.2188H16.5938V14.4062ZM16.5938 8.78125H2.8125V11.5938H16.5938V8.78125ZM33.1875 13C33.1875 7.36594 30.9603 3.15625 28.9688 3.15625C26.9772 3.15625 24.75 7.36594 24.75 13C24.75 18.6341 26.9772 22.8438 28.9688 22.8438C30.9603 22.8438 33.1875 18.6341 33.1875 13ZM23.625 22.8438H24.466C22.6299 20.1277 21.9375 16.2706 21.9375 13C21.9375 9.73102 22.6294 5.87344 24.466 3.15625H23.625C21.6335 3.15625 19.4062 7.36594 19.4062 13C19.4062 18.6341 21.6335 22.8438 23.625 22.8438ZM2.8125 22.8438H16.5938V20.0312H2.8125V22.8438Z" fill="white"/>
</svg>
